<svg width="60" height="60" viewBox="0 0 60 60" fill="none" xmlns="http://www.w3.org/2000/svg">
<g filter="url(#filter0_d_539_824)">
<rect x="11" y="9" width="40" height="40" rx="10" fill="white"/>
<path fill-rule="evenodd" clip-rule="evenodd" d="M25.5056 22.4763C24.9846 22.7658 24.3477 22.9395 23.7109 22.9395C21.6556 22.9395 19.9766 21.2895 19.9766 19.2342C19.9766 17.179 21.6556 15.5 23.7109 15.5C25.303 15.5 26.6635 16.5132 27.1846 17.9026C26.1135 18.829 25.4477 20.2184 25.4477 21.7237C25.4477 21.9842 25.4477 22.2448 25.5056 22.4763ZM23.4501 33.0422C23.3343 34.1711 24.058 35.1843 25.158 35.4159C25.4186 35.4738 25.6791 35.5317 25.9686 35.5606L26.2291 40.1054C26.0265 40.308 25.737 40.4527 25.4186 40.4527H22.0028C21.3949 40.4527 20.9028 39.9896 20.8738 39.4106L20.4396 31.8553C19.8317 31.7685 19.2238 31.6816 18.6449 31.5658C18.2106 31.479 17.9501 31.0737 18.008 30.6685L18.4422 27.4553C18.6449 25.5737 20.1791 24.1553 22.0317 23.9816C22.5528 24.1842 23.1607 24.3 23.7396 24.3C24.3186 24.3 24.8975 24.1842 25.4475 23.9816C25.6501 24.0106 25.8528 24.0395 26.0265 24.0974C26.3159 24.6474 26.6923 25.1395 27.1554 25.5448C25.3896 26.2395 24.087 27.8606 23.8554 29.829L23.4501 33.0422ZM43.0194 30.6685L42.643 27.4553C42.4115 25.5737 40.9062 24.1553 39.0536 23.9816C38.5036 24.1842 37.9246 24.3 37.3457 24.3C36.7378 24.3 36.1588 24.1842 35.6378 23.9816C35.4351 23.9816 35.2325 24.0395 35.0588 24.0974C34.7693 24.6474 34.393 25.1395 33.9299 25.5158C35.6667 26.2395 36.9693 27.8316 37.2009 29.829L37.5772 33.0422C37.722 34.1711 36.9983 35.1843 35.8983 35.4159C35.6378 35.4738 35.3772 35.5317 35.0878 35.5895L34.8272 40.1343C35.0299 40.3369 35.3193 40.4817 35.6378 40.4817H39.0536C39.6615 40.4817 40.1536 40.0185 40.1825 39.4396L40.6167 31.8843L40.6168 31.8843L40.6169 31.8842C41.2247 31.7974 41.8326 31.7106 42.4115 31.5948C42.8167 31.479 43.0773 31.1027 43.0194 30.6685ZM37.3161 22.9685C36.6792 22.9685 36.0713 22.7948 35.5213 22.5053C35.5792 22.2448 35.5792 22.0132 35.5792 21.7527V21.7527C35.5792 20.2474 34.9134 18.8869 33.8424 17.9316C34.3634 16.5132 35.7239 15.5 37.3161 15.5C39.3713 15.5 41.0503 17.179 41.0503 19.2342C41.0503 21.2895 39.3713 22.9685 37.3161 22.9685ZM36.2158 33.1869L35.8395 29.9737C35.608 28.0921 34.1316 26.6737 32.279 26.5C31.729 26.7026 31.15 26.8184 30.5421 26.8184C29.9342 26.8184 29.3263 26.7026 28.8053 26.5C26.9816 26.6737 25.4763 28.1211 25.2448 29.9737L24.8684 33.1869C24.8105 33.5921 25.0711 33.9974 25.5053 34.0842C26.0842 34.229 26.6921 34.3158 27.3 34.4027L27.7342 41.929C27.7632 42.508 28.2553 43.0001 28.8632 43.0001H32.279C32.8579 43.0001 33.379 42.5369 33.4079 41.929L33.8422 34.4027C34.4501 34.3158 35.0579 34.229 35.6369 34.0842C35.9843 34.0263 36.2737 33.6211 36.2158 33.1869ZM34.2478 21.7525C34.2478 23.8149 32.576 25.4868 30.5136 25.4868C28.4512 25.4868 26.7794 23.8149 26.7794 21.7525C26.7794 19.6902 28.4512 18.0183 30.5136 18.0183C32.576 18.0183 34.2478 19.6902 34.2478 21.7525Z" fill="url(#paint0_linear_539_824)"/>
</g>
<defs>
<filter id="filter0_d_539_824" x="0" y="0" width="60" height="60" filterUnits="userSpaceOnUse" color-interpolation-filters="sRGB">
<feFlood flood-opacity="0" result="BackgroundImageFix"/>
<feColorMatrix in="SourceAlpha" type="matrix" values="0 0 0 0 0 0 0 0 0 0 0 0 0 0 0 0 0 0 127 0" result="hardAlpha"/>
<feOffset dx="-1" dy="1"/>
<feGaussianBlur stdDeviation="5"/>
<feComposite in2="hardAlpha" operator="out"/>
<feColorMatrix type="matrix" values="0 0 0 0 0 0 0 0 0 0 0 0 0 0 0 0 0 0 0.08 0"/>
<feBlend mode="normal" in2="BackgroundImageFix" result="effect1_dropShadow_539_824"/>
<feBlend mode="normal" in="SourceGraphic" in2="effect1_dropShadow_539_824" result="shape"/>
</filter>
<linearGradient id="paint0_linear_539_824" x1="30.5895" y1="43" x2="30.5895" y2="15.5" gradientUnits="userSpaceOnUse">
<stop stop-color="#F0C735"/>
<stop offset="0.984375" stop-color="#D98F39"/>
</linearGradient>
</defs>
</svg>
