<svg width="60" height="60" viewBox="0 0 60 60" fill="none" xmlns="http://www.w3.org/2000/svg">
<g filter="url(#filter0_d_539_840)">
<rect x="11" y="9" width="40" height="40" rx="10" fill="white"/>
<path d="M37.2719 15.0098C36.7332 15.0706 36.3107 15.4326 36.1761 15.9505C36.1154 16.183 36.118 18.9759 36.1787 19.1846C36.3979 19.9271 37.1398 20.3182 37.8528 20.0671C38.2647 19.9218 38.6 19.499 38.6713 19.0314C38.6898 18.9098 38.6977 18.3629 38.6924 17.4354C38.6819 16.0773 38.6819 16.0192 38.6264 15.8765C38.5419 15.6519 38.4997 15.5805 38.3545 15.422C38.0614 15.1023 37.6943 14.9596 37.2719 15.0098Z" fill="url(#paint0_linear_539_840)"/>
<path d="M24.0954 15.0548C23.8684 15.1314 23.7284 15.2133 23.5726 15.3586C23.4089 15.5172 23.3191 15.6572 23.2426 15.8871C23.1871 16.043 23.1845 16.1091 23.1766 17.4672C23.1686 18.6641 23.1739 18.9099 23.2082 19.079C23.3852 19.9298 24.2486 20.3816 25.0064 20.017C25.3391 19.8585 25.5424 19.6233 25.6639 19.2587L25.7299 19.0631L25.7352 17.5702C25.7431 16.0932 25.7431 16.0747 25.685 15.903C25.5662 15.5436 25.3206 15.2714 24.9668 15.1023C24.8136 15.031 24.7635 15.0204 24.5179 15.0151C24.304 15.0099 24.2063 15.0178 24.0954 15.0548Z" fill="url(#paint1_linear_539_840)"/>
<path d="M39.5849 17.5623C39.577 17.5729 39.569 17.9666 39.569 18.4422C39.569 19.3722 39.5558 19.5017 39.4344 19.8188C39.1492 20.556 38.4389 21.0977 37.623 21.1928C36.7411 21.2985 35.8196 20.77 35.4447 19.9483C35.2704 19.5678 35.2572 19.47 35.244 18.4871L35.2334 17.5966H30.9348H26.6335L26.6256 18.5003C26.615 19.3432 26.6098 19.4198 26.5543 19.6048C26.3721 20.2257 25.984 20.6934 25.4295 20.9682C25.1047 21.1267 24.9357 21.169 24.5264 21.1822C24.0802 21.2007 23.8663 21.1558 23.4887 20.9708C23.2485 20.8546 23.1798 20.8044 22.9712 20.5956C22.7257 20.3525 22.5567 20.1042 22.4563 19.8399C22.3243 19.4912 22.319 19.4489 22.3032 18.5082L22.2873 17.6098L21.2576 17.6019C20.3202 17.5966 20.212 17.5993 20.0298 17.6468C19.7103 17.7261 19.4251 17.8476 19.1716 18.0141C18.5142 18.4395 18.1154 19.0975 18.023 19.9113C18.0019 20.1015 17.9966 22.6038 18.0019 28.9717C18.0125 38.6081 17.9993 37.8286 18.1577 38.2884C18.3188 38.7613 18.6647 39.2264 19.0686 39.517C19.2772 39.665 19.6654 39.85 19.9374 39.9292L20.1486 39.99L30.7896 39.9979C40.4483 40.0032 41.4543 40.0006 41.6893 39.9636C42.2623 39.8685 42.7297 39.6333 43.1152 39.2502C43.5165 38.8459 43.7621 38.3201 43.8439 37.6912C43.8677 37.5115 43.873 35.2656 43.8677 28.615L43.8598 19.7765L43.7885 19.5176C43.6116 18.8781 43.2551 18.3603 42.764 18.0273C42.3151 17.7235 41.8372 17.6072 40.9421 17.5834C40.6728 17.5755 40.2608 17.5649 40.0285 17.557C39.7935 17.5517 39.5955 17.5544 39.5849 17.5623ZM42.1567 30.5095C42.1567 35.5747 42.1488 36.5577 42.1197 36.703C42.0669 36.954 41.9402 37.1865 41.8081 37.2817C41.5731 37.4534 42.4709 37.4402 30.9638 37.4402C19.6152 37.4402 20.3572 37.4481 20.1011 37.3002C19.9506 37.2103 19.8872 37.139 19.8 36.9514L19.7261 36.7928L19.7182 30.6416L19.7129 24.493H30.9348H42.1567V30.5095Z" fill="url(#paint2_linear_539_840)"/>
<path d="M26.6572 27.5052V28.7735H28.3471H30.037V27.5052V26.2369H28.3471H26.6572V27.5052Z" fill="url(#paint3_linear_539_840)"/>
<path d="M31.832 27.5052V28.7735H33.5219H35.2118V27.5052V26.2369H33.5219H31.832V27.5052Z" fill="url(#paint4_linear_539_840)"/>
<path d="M37.0078 27.5052V28.7735H38.6977H40.3876V27.5052V26.2369H38.6977H37.0078V27.5052Z" fill="url(#paint5_linear_539_840)"/>
<path d="M21.4814 30.9666V32.2349H23.1713H24.8612V30.9666V29.6983H23.1713H21.4814V30.9666Z" fill="url(#paint6_linear_539_840)"/>
<path d="M26.6361 30.9586L26.6441 32.2217L28.3419 32.2296L30.037 32.2349V30.9666V29.6983H28.3339H26.6309L26.6361 30.9586Z" fill="url(#paint7_linear_539_840)"/>
<path d="M31.832 30.9666V32.2349L33.5298 32.2296L35.225 32.2217L35.2329 30.9586L35.2382 29.6983H33.5351H31.832V30.9666Z" fill="url(#paint8_linear_539_840)"/>
<path d="M37 30.9617V32.23L38.6978 32.2247L40.393 32.2168L40.4009 30.9538L40.4062 29.6934H38.7031H37V30.9617Z" fill="url(#paint9_linear_539_840)"/>
<path d="M31.832 34.4015V35.6698H33.5219H35.2118V34.4015V33.1332H33.5219H31.832V34.4015Z" fill="url(#paint10_linear_539_840)"/>
<path d="M37.0078 34.4015V35.6698H38.7109H40.414L40.4087 34.4068L40.4008 33.1464L38.7056 33.1385L37.0078 33.1332V34.4015Z" fill="url(#paint11_linear_539_840)"/>
<path d="M21.4608 34.4201L21.4688 35.6831L23.1666 35.691L24.8617 35.6963V34.428V33.1597H23.1587H21.4556L21.4608 34.4201Z" fill="url(#paint12_linear_539_840)"/>
<path d="M26.6572 34.4279V35.6962H28.3471H30.037V34.4279V33.1596H28.3471H26.6572V34.4279Z" fill="url(#paint13_linear_539_840)"/>
</g>
<defs>
<filter id="filter0_d_539_840" x="0" y="0" width="60" height="60" filterUnits="userSpaceOnUse" color-interpolation-filters="sRGB">
<feFlood flood-opacity="0" result="BackgroundImageFix"/>
<feColorMatrix in="SourceAlpha" type="matrix" values="0 0 0 0 0 0 0 0 0 0 0 0 0 0 0 0 0 0 127 0" result="hardAlpha"/>
<feOffset dx="-1" dy="1"/>
<feGaussianBlur stdDeviation="5"/>
<feComposite in2="hardAlpha" operator="out"/>
<feColorMatrix type="matrix" values="0 0 0 0 0 0 0 0 0 0 0 0 0 0 0 0 0 0 0.08 0"/>
<feBlend mode="normal" in2="BackgroundImageFix" result="effect1_dropShadow_539_840"/>
<feBlend mode="normal" in="SourceGraphic" in2="effect1_dropShadow_539_840" result="shape"/>
</filter>
<linearGradient id="paint0_linear_539_840" x1="37.4129" y1="20.1431" x2="37.4129" y2="15" gradientUnits="userSpaceOnUse">
<stop stop-color="#F0C735"/>
<stop offset="1" stop-color="#D98F39"/>
</linearGradient>
<linearGradient id="paint1_linear_539_840" x1="24.4561" y1="20.1442" x2="24.4561" y2="15.0137" gradientUnits="userSpaceOnUse">
<stop stop-color="#F0C735"/>
<stop offset="1" stop-color="#D98F39"/>
</linearGradient>
<linearGradient id="paint2_linear_539_840" x1="30.9348" y1="40" x2="30.9348" y2="17.5542" gradientUnits="userSpaceOnUse">
<stop stop-color="#F0C735"/>
<stop offset="1" stop-color="#D98F39"/>
</linearGradient>
<linearGradient id="paint3_linear_539_840" x1="28.3471" y1="28.7735" x2="28.3471" y2="26.2369" gradientUnits="userSpaceOnUse">
<stop stop-color="#F0C735"/>
<stop offset="1" stop-color="#D98F39"/>
</linearGradient>
<linearGradient id="paint4_linear_539_840" x1="33.5219" y1="28.7735" x2="33.5219" y2="26.2369" gradientUnits="userSpaceOnUse">
<stop stop-color="#F0C735"/>
<stop offset="1" stop-color="#D98F39"/>
</linearGradient>
<linearGradient id="paint5_linear_539_840" x1="38.6977" y1="28.7735" x2="38.6977" y2="26.2369" gradientUnits="userSpaceOnUse">
<stop stop-color="#F0C735"/>
<stop offset="1" stop-color="#D98F39"/>
</linearGradient>
<linearGradient id="paint6_linear_539_840" x1="23.1713" y1="32.2349" x2="23.1713" y2="29.6983" gradientUnits="userSpaceOnUse">
<stop stop-color="#F0C735"/>
<stop offset="1" stop-color="#D98F39"/>
</linearGradient>
<linearGradient id="paint7_linear_539_840" x1="28.3339" y1="32.2349" x2="28.3339" y2="29.6983" gradientUnits="userSpaceOnUse">
<stop stop-color="#F0C735"/>
<stop offset="1" stop-color="#D98F39"/>
</linearGradient>
<linearGradient id="paint8_linear_539_840" x1="33.5351" y1="32.2349" x2="33.5351" y2="29.6983" gradientUnits="userSpaceOnUse">
<stop stop-color="#F0C735"/>
<stop offset="1" stop-color="#D98F39"/>
</linearGradient>
<linearGradient id="paint9_linear_539_840" x1="38.7031" y1="32.23" x2="38.7031" y2="29.6934" gradientUnits="userSpaceOnUse">
<stop stop-color="#F0C735"/>
<stop offset="1" stop-color="#D98F39"/>
</linearGradient>
<linearGradient id="paint10_linear_539_840" x1="33.5219" y1="35.6698" x2="33.5219" y2="33.1332" gradientUnits="userSpaceOnUse">
<stop stop-color="#F0C735"/>
<stop offset="1" stop-color="#D98F39"/>
</linearGradient>
<linearGradient id="paint11_linear_539_840" x1="38.7109" y1="35.6698" x2="38.7109" y2="33.1332" gradientUnits="userSpaceOnUse">
<stop stop-color="#F0C735"/>
<stop offset="1" stop-color="#D98F39"/>
</linearGradient>
<linearGradient id="paint12_linear_539_840" x1="23.1587" y1="35.6963" x2="23.1587" y2="33.1597" gradientUnits="userSpaceOnUse">
<stop stop-color="#F0C735"/>
<stop offset="1" stop-color="#D98F39"/>
</linearGradient>
<linearGradient id="paint13_linear_539_840" x1="28.3471" y1="35.6962" x2="28.3471" y2="33.1596" gradientUnits="userSpaceOnUse">
<stop stop-color="#F0C735"/>
<stop offset="1" stop-color="#D98F39"/>
</linearGradient>
</defs>
</svg>
