<svg width="100" height="100" viewBox="0 0 100 100" fill="none" xmlns="http://www.w3.org/2000/svg">
<g filter="url(#filter0_d_539_914)">
<rect x="11" y="9" width="80" height="80" rx="20" fill="white"/>
</g>
<g filter="url(#filter1_d_539_914)">
<path d="M66.8269 57.3655L58.25 65.7365L61.9122 69.3098L70.4891 60.9388L66.8269 57.3655Z" fill="url(#paint0_linear_539_914)"/>
<path d="M56.0042 67.9432C55.9109 68.0342 55.8176 68.1708 55.8176 68.3074L55.0712 71.5398C54.9312 72.0861 55.4444 72.5869 56.0042 72.4503L59.3166 71.7219C59.4565 71.6764 59.5965 71.6308 59.6898 71.5398L60.7161 70.5382L57.0772 66.9871L56.0042 67.9432Z" fill="url(#paint1_linear_539_914)"/>
<path d="M73.4525 56.9258L70.8866 54.4674C70.6067 54.1942 70.0935 54.1942 69.8136 54.4674L68.0874 56.1518L71.7263 59.7029L73.4525 58.0184C73.779 57.6997 73.779 57.2445 73.4525 56.9258Z" fill="url(#paint2_linear_539_914)"/>
<path d="M64.6345 56.4706V31.0213C64.6345 30.0197 63.7948 29.2002 62.7684 29.2002H35.8964C34.87 29.2002 34.0303 30.0197 34.0303 31.0213V62.2524C34.0303 63.254 34.87 64.0735 35.8964 64.0735H56.8901L64.6345 56.4706ZM46.9531 35.3463H57.5433C58.1498 35.3463 58.6163 35.8471 58.6163 36.3934C58.6163 36.9852 58.1031 37.4405 57.5433 37.4405H46.9531C46.3466 37.4405 45.8801 36.9397 45.8801 36.3934C45.8334 35.8015 46.3466 35.3463 46.9531 35.3463ZM46.9531 42.1297H57.5433C58.1498 42.1297 58.6163 42.6305 58.6163 43.1768C58.6163 43.7687 58.1031 44.2239 57.5433 44.2239H46.9531C46.3466 44.2239 45.8801 43.7231 45.8801 43.1768C45.8334 42.6305 46.3466 42.1297 46.9531 42.1297ZM46.9531 49.0042H57.5433C58.1498 49.0042 58.6163 49.505 58.6163 50.0513C58.6163 50.6432 58.1031 51.0984 57.5433 51.0984H46.9531C46.3466 51.0984 45.8801 50.5976 45.8801 50.0513C45.8334 49.4595 46.3466 49.0042 46.9531 49.0042ZM41.9146 57.9729H41.1215C40.515 57.9729 40.0485 57.4721 40.0485 56.9258C40.0485 56.334 40.5617 55.8787 41.1215 55.8787H41.9146C42.5211 55.8787 42.9876 56.3795 42.9876 56.9258C43.0343 57.4721 42.5211 57.9729 41.9146 57.9729ZM41.9146 51.0984H41.1215C40.515 51.0984 40.0485 50.5976 40.0485 50.0513C40.0485 49.4595 40.5617 49.0042 41.1215 49.0042H41.9146C42.5211 49.0042 42.9876 49.505 42.9876 50.0513C43.0343 50.6432 42.5211 51.0984 41.9146 51.0984ZM41.9146 44.2695H41.1215C40.515 44.2695 40.0485 43.7687 40.0485 43.2224C40.0485 42.6305 40.5617 42.1752 41.1215 42.1752H41.9146C42.5211 42.1752 42.9876 42.676 42.9876 43.2224C43.0343 43.8142 42.5211 44.2695 41.9146 44.2695ZM41.9146 37.486H41.1215C40.515 37.486 40.0485 36.9852 40.0485 36.4389C40.0485 35.8471 40.5617 35.3918 41.1215 35.3918H41.9146C42.5211 35.3918 42.9876 35.8926 42.9876 36.4389C43.0343 36.9852 42.5211 37.486 41.9146 37.486ZM45.8334 56.8803C45.8334 56.2885 46.3466 55.8332 46.9064 55.8332H57.4966C58.1031 55.8332 58.5697 56.334 58.5697 56.8803C58.5697 57.4721 58.0565 57.9274 57.4966 57.9274H46.9531C46.3466 57.9729 45.8334 57.4721 45.8334 56.8803Z" fill="url(#paint3_linear_539_914)"/>
</g>
<defs>
<filter id="filter0_d_539_914" x="0" y="0" width="100" height="100" filterUnits="userSpaceOnUse" color-interpolation-filters="sRGB">
<feFlood flood-opacity="0" result="BackgroundImageFix"/>
<feColorMatrix in="SourceAlpha" type="matrix" values="0 0 0 0 0 0 0 0 0 0 0 0 0 0 0 0 0 0 127 0" result="hardAlpha"/>
<feOffset dx="-1" dy="1"/>
<feGaussianBlur stdDeviation="5"/>
<feComposite in2="hardAlpha" operator="out"/>
<feColorMatrix type="matrix" values="0 0 0 0 0 0 0 0 0 0 0 0 0 0 0 0 0 0 0.08 0"/>
<feBlend mode="normal" in2="BackgroundImageFix" result="effect1_dropShadow_539_914"/>
<feBlend mode="normal" in="SourceGraphic" in2="effect1_dropShadow_539_914" result="shape"/>
</filter>
<filter id="filter1_d_539_914" x="23.0303" y="20.2002" width="59.667" height="63.2729" filterUnits="userSpaceOnUse" color-interpolation-filters="sRGB">
<feFlood flood-opacity="0" result="BackgroundImageFix"/>
<feColorMatrix in="SourceAlpha" type="matrix" values="0 0 0 0 0 0 0 0 0 0 0 0 0 0 0 0 0 0 127 0" result="hardAlpha"/>
<feOffset dx="-1" dy="1"/>
<feGaussianBlur stdDeviation="5"/>
<feComposite in2="hardAlpha" operator="out"/>
<feColorMatrix type="matrix" values="0 0 0 0 0 0 0 0 0 0 0 0 0 0 0 0 0 0 0.08 0"/>
<feBlend mode="normal" in2="BackgroundImageFix" result="effect1_dropShadow_539_914"/>
<feBlend mode="normal" in="SourceGraphic" in2="effect1_dropShadow_539_914" result="shape"/>
</filter>
<linearGradient id="paint0_linear_539_914" x1="62.5385" y1="61.551" x2="66.1112" y2="65.2116" gradientUnits="userSpaceOnUse">
<stop stop-color="#D98F39"/>
<stop offset="1" stop-color="#F0C735"/>
</linearGradient>
<linearGradient id="paint1_linear_539_914" x1="57.882" y1="66.9871" x2="57.882" y2="72.473" gradientUnits="userSpaceOnUse">
<stop stop-color="#D98F39"/>
<stop offset="1" stop-color="#F0C735"/>
</linearGradient>
<linearGradient id="paint2_linear_539_914" x1="70.8924" y1="54.2625" x2="70.8924" y2="59.7029" gradientUnits="userSpaceOnUse">
<stop stop-color="#D98F39"/>
<stop offset="1" stop-color="#F0C735"/>
</linearGradient>
<linearGradient id="paint3_linear_539_914" x1="49.3324" y1="29.2002" x2="49.3324" y2="64.0735" gradientUnits="userSpaceOnUse">
<stop stop-color="#D98F39"/>
<stop offset="1" stop-color="#F0C735"/>
</linearGradient>
</defs>
</svg>
