<svg width="100" height="100" viewBox="0 0 100 100" fill="none" xmlns="http://www.w3.org/2000/svg">
<g filter="url(#filter0_d_539_915)">
<rect x="11" y="9" width="80" height="80" rx="20" fill="url(#paint0_linear_539_915)"/>
</g>
<g filter="url(#filter1_d_539_915)">
<path d="M56.4654 54.5848V50.4095C56.4121 50.4095 55.9555 50.4089 56.0009 50.4095H55.9746C55.3848 50.4023 55.0158 50.2449 54.6652 50.0965C54.3193 49.9437 54.0285 49.7791 53.7724 49.6332L53.6685 49.574C53.1858 49.2985 52.6871 49.0134 52.1405 48.7989C51.907 48.7069 51.7016 48.5742 51.5257 48.4145C51.4377 48.4104 51.3498 48.4042 51.2621 48.4042C49.7633 48.4114 48.776 48.9717 47.7307 49.5646C47.5567 49.6632 47.3829 49.7615 47.2082 49.857L47.0577 49.9324C46.6579 50.1344 46.1599 50.3854 45.3641 50.4089H45.3575H45.335C45.3334 50.4089 45.3319 50.4086 45.33 50.4086L45.3574 55.1881L45.3195 66.744C45.2096 68.0935 47.3481 71.0249 48.697 71.1347C50.0459 71.2446 51.2685 66.7425 51.3784 65.3929V57.7533L51.3861 57.5888L51.3784 65.3929C51.4886 66.7428 52.0764 71.9204 53.4256 71.8103C54.7748 71.7004 56.5756 68.0935 56.4654 66.744L56.4654 54.5848Z" fill="white"/>
<path fill-rule="evenodd" clip-rule="evenodd" d="M48.6696 40.1228C49.233 40.3803 49.859 40.5242 50.5188 40.5242C51.2297 40.5242 51.9012 40.3573 52.4974 40.0613L54.5991 40.395L54.6009 40.4054C56.066 40.416 57.356 41.0537 58.1364 42.0009C58.9425 42.9632 59.2771 44.1312 59.2803 45.2456C59.2787 46.0025 59.1247 46.7513 58.7857 47.4431C58.4482 48.1287 57.9001 48.7748 57.1178 49.1699C56.7982 49.332 56.4407 49.4031 56.1339 49.4031H56.1211C55.6033 49.3968 55.2348 49.256 54.9227 49.1239C54.6113 48.9864 54.3444 48.8356 54.0764 48.6841L54.0747 48.6831L54.073 48.6821C53.6062 48.4154 53.1318 48.1444 52.61 47.918C53.572 47.8845 54.3956 47.1608 54.5399 46.2022C54.5878 45.8823 54.5555 45.569 54.4616 45.2803C54.7568 45.4278 55.0232 45.5743 55.258 45.7067C55.5169 45.8551 55.7445 45.985 55.9188 46.0795C55.926 46.0667 55.9332 46.0526 55.9404 46.0385L55.9404 46.0385C56.0365 45.8482 56.1092 45.5552 56.107 45.2453C56.1104 44.782 55.9505 44.3209 55.7132 44.0488C55.5804 43.9048 55.4402 43.7846 55.2333 43.7001L55.5551 45.3742C55.5487 45.3706 55.5425 45.367 55.5362 45.3634C55.515 45.3513 55.4941 45.3392 55.4718 45.3267C55.0642 45.0969 54.6188 44.8584 54.1107 44.6342C53.8036 44.2532 53.3607 43.9803 52.8401 43.902C52.3398 43.8269 51.838 43.7887 51.3331 43.7887C49.7457 43.7887 48.2096 44.1925 46.6387 45.024C46.3623 45.1692 46.11 45.3126 45.8978 45.4337L45.4974 45.6845C45.5271 45.8213 45.5691 45.943 45.6173 46.0385C45.6245 46.0529 45.632 46.067 45.6392 46.0802C45.752 46.0194 45.8842 45.9439 46.0336 45.8585C46.2643 45.7267 46.5362 45.5713 46.8419 45.4102C47.9009 44.8499 49.4192 44.2216 51.3494 44.2251C51.8039 44.2251 52.2794 44.2592 52.7747 44.3337C53.6412 44.4639 54.2378 45.2709 54.1076 46.1378C53.9774 47.0039 53.1697 47.6006 52.3035 47.4704C51.9626 47.4193 51.6468 47.3974 51.3494 47.3974C49.7346 47.4047 48.6543 48.0178 47.6034 48.6142C47.4311 48.712 47.2596 48.8093 47.0867 48.9035C47.0405 48.9261 46.9941 48.9495 46.9471 48.9732C46.562 49.1672 46.136 49.3818 45.4385 49.4025C45.4329 49.4028 45.4273 49.4028 45.422 49.4028C45.1174 49.4028 44.7602 49.332 44.4409 49.1692C43.6598 48.7758 43.1101 48.1296 42.7749 47.4428C42.7712 47.4356 42.7684 47.4281 42.7656 47.4207C42.763 47.414 42.7605 47.4074 42.7573 47.4009C42.4321 46.721 42.2818 45.9869 42.2803 45.2453C42.2831 44.1315 42.618 42.9629 43.4247 42.0006C43.4467 41.974 43.471 41.9489 43.4953 41.9239C43.5112 41.9075 43.5272 41.891 43.5425 41.8741C44.2938 41.0402 45.4495 40.4742 46.7662 40.4135C46.7826 40.4116 46.7988 40.4093 46.8151 40.4071C46.8597 40.4011 46.9042 40.395 46.9505 40.395L48.6696 40.1228Z" fill="white"/>
<path d="M54.6551 38.1956C56.5611 36.9239 57.817 34.7561 57.817 32.2927C57.817 28.3758 54.6422 25.2001 50.7242 25.2001C46.8072 25.2001 43.6313 28.3758 43.6313 32.2927C43.6313 34.7556 44.8877 36.9239 46.7937 38.1956C47.9192 38.9463 49.2702 39.3858 50.7242 39.3858C52.1787 39.3858 53.5296 38.9463 54.6551 38.1956Z" fill="white"/>
<path d="M56.4657 66.4061C56.4657 69.7638 54.4193 72.4857 51.0616 72.4857C47.704 72.4857 45.3198 69.7638 45.3198 66.4061C45.3198 63.0485 47.704 60.3266 51.0616 60.3266C54.4193 60.3266 56.4657 63.0485 56.4657 66.4061Z" fill="white"/>
</g>
<defs>
<filter id="filter0_d_539_915" x="0" y="0" width="100" height="100" filterUnits="userSpaceOnUse" color-interpolation-filters="sRGB">
<feFlood flood-opacity="0" result="BackgroundImageFix"/>
<feColorMatrix in="SourceAlpha" type="matrix" values="0 0 0 0 0 0 0 0 0 0 0 0 0 0 0 0 0 0 127 0" result="hardAlpha"/>
<feOffset dx="-1" dy="1"/>
<feGaussianBlur stdDeviation="5"/>
<feComposite in2="hardAlpha" operator="out"/>
<feColorMatrix type="matrix" values="0 0 0 0 0 0 0 0 0 0 0 0 0 0 0 0 0 0 0.08 0"/>
<feBlend mode="normal" in2="BackgroundImageFix" result="effect1_dropShadow_539_915"/>
<feBlend mode="normal" in="SourceGraphic" in2="effect1_dropShadow_539_915" result="shape"/>
</filter>
<filter id="filter1_d_539_915" x="31.2803" y="16.2001" width="37" height="67.2856" filterUnits="userSpaceOnUse" color-interpolation-filters="sRGB">
<feFlood flood-opacity="0" result="BackgroundImageFix"/>
<feColorMatrix in="SourceAlpha" type="matrix" values="0 0 0 0 0 0 0 0 0 0 0 0 0 0 0 0 0 0 127 0" result="hardAlpha"/>
<feOffset dx="-1" dy="1"/>
<feGaussianBlur stdDeviation="5"/>
<feComposite in2="hardAlpha" operator="out"/>
<feColorMatrix type="matrix" values="0 0 0 0 0 0 0 0 0 0 0 0 0 0 0 0 0 0 0.08 0"/>
<feBlend mode="normal" in2="BackgroundImageFix" result="effect1_dropShadow_539_915"/>
<feBlend mode="normal" in="SourceGraphic" in2="effect1_dropShadow_539_915" result="shape"/>
</filter>
<linearGradient id="paint0_linear_539_915" x1="204" y1="-84" x2="5.00001" y2="89" gradientUnits="userSpaceOnUse">
<stop offset="0.025" stop-color="#F0C735"/>
<stop offset="0.932292" stop-color="#D98F39"/>
</linearGradient>
</defs>
</svg>
