<svg width="60" height="60" viewBox="0 0 60 60" fill="none" xmlns="http://www.w3.org/2000/svg">
<g filter="url(#filter0_d_539_860)">
<rect x="11" y="9" width="40" height="40" rx="10" fill="url(#paint0_linear_539_860)"/>
<path d="M23.8323 15.2693C23.123 15.2693 22.5557 15.8367 22.5557 16.5932C22.5557 17.3024 23.123 17.8698 23.8323 17.8698V22.2198C23.8323 23.8273 24.9198 25.3402 26.4329 25.955C27.2366 26.2859 28.2767 26.4278 29.0806 26.7115C29.5533 26.8062 29.8844 27.0424 30.1207 27.2316C30.3572 27.4207 30.499 27.6098 30.499 27.9408V29.0282C30.499 29.3592 30.3572 29.5484 30.1207 29.7374C29.8844 29.9265 29.5533 30.1157 29.0806 30.2576C28.2767 30.5413 27.2366 30.6831 26.4329 31.014C24.9198 31.6287 23.8323 33.1417 23.8323 34.7493V39.2883C23.123 39.2883 22.5557 39.8557 22.5557 40.5649C22.5557 41.3214 23.123 41.8888 23.8323 41.8888H38.9151C39.6243 41.8888 40.239 41.3214 40.239 40.5649C40.239 39.8557 39.6243 39.2883 38.9151 39.2883H38.726V34.7493C38.726 33.189 37.9694 31.5814 36.4091 31.014C35.5581 30.6831 34.5179 30.4939 33.6668 30.2102C33.2887 30.1155 32.9104 29.8793 32.6739 29.6902C32.4376 29.501 32.343 29.3119 32.343 28.981V27.8935C32.343 27.5625 32.4377 27.3735 32.6739 27.1842C32.9104 26.9952 33.2887 26.8061 33.6668 26.6642C34.5179 26.3805 35.6054 26.1913 36.4091 25.8604C37.9694 25.293 38.726 23.7327 38.726 22.1251V17.8698H38.9151C39.6243 17.8698 40.239 17.3024 40.239 16.5459C40.239 15.8367 39.6243 15.2221 38.9151 15.2221H23.8323V15.2693ZM24.9198 21.9361H37.7804C37.9222 21.9361 38.0168 22.0779 38.0168 22.2198C38.0168 22.9762 37.6385 23.6381 37.0711 24.0636C36.5037 24.4891 35.7473 24.7728 35.0381 25.0565C34.2815 25.293 33.525 25.5294 32.8631 25.7658C32.2484 26.0022 31.8228 26.2859 31.5865 26.6169C31.5398 26.7587 31.3028 26.8061 31.2082 26.6636C30.9245 26.2853 30.4518 26.0488 29.7898 25.7651C29.1752 25.5288 28.4186 25.3396 27.6621 25.1032C26.9529 24.8196 26.1964 24.5359 25.6763 24.1103C25.1089 23.6848 24.7307 23.0228 24.7307 22.2191C24.7307 22.0772 24.8255 21.9354 24.9198 21.9354V21.9361ZM31.3501 27.3261C31.4919 27.3261 31.5865 27.3728 31.5865 27.5153C31.5865 27.61 31.4918 27.7044 31.3501 27.7044C31.2553 27.7044 31.161 27.6096 31.161 27.5153C31.1143 27.3734 31.2557 27.3261 31.3501 27.3261ZM31.3501 29.0755C31.4919 29.0755 31.5865 29.1235 31.5865 29.2647C31.5865 29.3594 31.4918 29.4538 31.3501 29.4538C31.2553 29.4538 31.161 29.359 31.161 29.2647C31.1143 29.1228 31.2557 29.0755 31.3501 29.0755ZM31.3501 30.825C31.4919 30.825 31.5865 30.8717 31.5865 31.014C31.5865 31.1559 31.4918 31.2031 31.3501 31.2031C31.2553 31.2031 31.161 31.1564 31.161 31.014C31.1143 30.9193 31.2557 30.825 31.3501 30.825ZM31.3501 32.6216C31.4919 32.6216 31.5865 32.7163 31.5865 32.8108C31.5865 32.9055 31.4918 32.9999 31.3501 32.9999C31.2553 32.9999 31.161 32.9051 31.161 32.8108C31.161 32.669 31.2557 32.6216 31.3501 32.6216ZM31.3034 33.7564C31.3501 33.7564 31.3501 33.7564 31.3034 33.7564C31.4452 33.7564 31.5398 33.8031 31.5871 33.8982C31.8234 34.2765 32.2963 34.5602 32.8637 34.8439C33.5255 35.1276 34.2821 35.3167 35.0386 35.6004C35.7951 35.884 36.5043 36.1677 37.0717 36.5932C37.6391 37.0188 38.0173 37.6808 38.0173 38.4845C38.0173 38.5793 37.9226 38.7209 37.7809 38.7209H24.9677C24.873 38.7209 24.7313 38.5791 24.7313 38.4845C24.7313 37.6808 25.1568 37.0188 25.7242 36.5932C26.2443 36.1677 27.0008 35.884 27.71 35.6004C28.4665 35.3639 29.2229 35.1276 29.8377 34.8911C30.4995 34.6547 30.9724 34.2765 31.2088 33.8982C31.2088 33.8515 31.2555 33.8035 31.3035 33.7564C31.3035 33.8031 31.3035 33.7564 31.3035 33.7564H31.3034Z" fill="white"/>
</g>
<defs>
<filter id="filter0_d_539_860" x="0" y="0" width="60" height="60" filterUnits="userSpaceOnUse" color-interpolation-filters="sRGB">
<feFlood flood-opacity="0" result="BackgroundImageFix"/>
<feColorMatrix in="SourceAlpha" type="matrix" values="0 0 0 0 0 0 0 0 0 0 0 0 0 0 0 0 0 0 127 0" result="hardAlpha"/>
<feOffset dx="-1" dy="1"/>
<feGaussianBlur stdDeviation="5"/>
<feComposite in2="hardAlpha" operator="out"/>
<feColorMatrix type="matrix" values="0 0 0 0 0 0 0 0 0 0 0 0 0 0 0 0 0 0 0.08 0"/>
<feBlend mode="normal" in2="BackgroundImageFix" result="effect1_dropShadow_539_860"/>
<feBlend mode="normal" in="SourceGraphic" in2="effect1_dropShadow_539_860" result="shape"/>
</filter>
<linearGradient id="paint0_linear_539_860" x1="31" y1="9" x2="31" y2="49" gradientUnits="userSpaceOnUse">
<stop stop-color="#F0C735"/>
<stop offset="1" stop-color="#D98F39"/>
</linearGradient>
</defs>
</svg>
