<svg width="100" height="100" viewBox="0 0 100 100" fill="none" xmlns="http://www.w3.org/2000/svg">
<g filter="url(#filter0_d_539_917)">
<rect x="11" y="9" width="80" height="80" rx="20" fill="url(#paint0_linear_539_917)"/>
</g>
<g filter="url(#filter1_d_539_917)">
<path d="M61.9796 48.6831C59.7598 46.2231 56.7222 44.9346 53.451 44.9346H50.063C49.0115 44.9346 47.96 44.466 47.2591 43.646C46.5581 42.826 46.2076 41.7717 46.3244 40.7174C46.5581 38.8431 48.3105 37.3202 50.2966 37.3202H54.2688C55.4371 37.3202 56.3718 38.1403 56.6054 39.1945C56.7222 39.8974 57.4232 40.4831 58.1242 40.4831H62.6805C63.1479 40.4831 63.6152 40.2488 63.8488 39.8974C64.1993 39.546 64.3162 39.0774 64.1993 38.726C63.732 34.0402 60.1103 30.4088 55.4371 29.7059V25.8402C55.4371 24.9031 54.7361 24.2002 53.8015 24.2002H49.362C48.4273 24.2002 47.7264 24.9031 47.7264 25.8402V29.8231C41.8849 30.8774 37.9127 36.266 38.4968 42.2403C39.081 48.0974 44.3383 52.5489 50.4134 52.5489H53.3342C54.3857 52.5489 55.4371 53.0175 56.1381 53.8375C56.8391 54.6575 57.1896 55.7118 57.0727 56.766C56.8391 58.6403 55.0866 60.1632 53.1005 60.1632H49.1283C47.96 60.1632 47.0254 59.3432 46.7917 58.2889C46.6749 57.586 45.9739 57.1175 45.2729 57.1175H40.7166C40.2493 57.1175 39.782 57.3518 39.5483 57.7032C39.1978 58.0546 39.081 58.5232 39.1978 58.8746C39.6651 63.5604 43.2868 67.1918 47.96 67.8947V71.7604C47.96 72.6975 48.661 73.4004 49.5956 73.4004H54.0352C54.9698 73.4004 55.6708 72.6975 55.6708 71.7604V67.7775C60.6944 66.7232 64.433 62.6232 64.9003 57.7032C65.134 54.1889 64.0825 51.026 61.9796 48.6831Z" fill="white"/>
</g>
<defs>
<filter id="filter0_d_539_917" x="0" y="0" width="100" height="100" filterUnits="userSpaceOnUse" color-interpolation-filters="sRGB">
<feFlood flood-opacity="0" result="BackgroundImageFix"/>
<feColorMatrix in="SourceAlpha" type="matrix" values="0 0 0 0 0 0 0 0 0 0 0 0 0 0 0 0 0 0 127 0" result="hardAlpha"/>
<feOffset dx="-1" dy="1"/>
<feGaussianBlur stdDeviation="5"/>
<feComposite in2="hardAlpha" operator="out"/>
<feColorMatrix type="matrix" values="0 0 0 0 0 0 0 0 0 0 0 0 0 0 0 0 0 0 0.08 0"/>
<feBlend mode="normal" in2="BackgroundImageFix" result="effect1_dropShadow_539_917"/>
<feBlend mode="normal" in="SourceGraphic" in2="effect1_dropShadow_539_917" result="shape"/>
</filter>
<filter id="filter1_d_539_917" x="27.4399" y="15.2002" width="46.4922" height="69.2002" filterUnits="userSpaceOnUse" color-interpolation-filters="sRGB">
<feFlood flood-opacity="0" result="BackgroundImageFix"/>
<feColorMatrix in="SourceAlpha" type="matrix" values="0 0 0 0 0 0 0 0 0 0 0 0 0 0 0 0 0 0 127 0" result="hardAlpha"/>
<feOffset dx="-1" dy="1"/>
<feGaussianBlur stdDeviation="5"/>
<feComposite in2="hardAlpha" operator="out"/>
<feColorMatrix type="matrix" values="0 0 0 0 0 0 0 0 0 0 0 0 0 0 0 0 0 0 0.08 0"/>
<feBlend mode="normal" in2="BackgroundImageFix" result="effect1_dropShadow_539_917"/>
<feBlend mode="normal" in="SourceGraphic" in2="effect1_dropShadow_539_917" result="shape"/>
</filter>
<linearGradient id="paint0_linear_539_917" x1="204" y1="-84" x2="5.00001" y2="89" gradientUnits="userSpaceOnUse">
<stop offset="0.025" stop-color="#F0C735"/>
<stop offset="0.932292" stop-color="#D98F39"/>
</linearGradient>
</defs>
</svg>
