<svg
	width="276"
	height="31"
	fill="none"
	xmlns="http://www.w3.org/2000/svg"
>
	<path
		d="M8.623 30.357c-1.692 0-3.186-.397-4.482-1.19-1.269-.82-2.26-1.983-2.974-3.49-.714-1.506-1.07-3.291-1.07-5.353s.356-3.834 1.07-5.314c.714-1.507 1.705-2.67 2.974-3.49 1.27-.82 2.763-1.23 4.482-1.23 1.454 0 2.75.318 3.886.953 1.137.634 1.983 1.493 2.538 2.577V3.787c0-1.348.66-2.022 1.983-2.022 1.348 0 2.022.674 2.022 2.022v24.468c0 1.348-.66 2.023-1.983 2.023-1.321 0-1.982-.675-1.982-2.023v-1.507c-.582 1.11-1.441 1.996-2.578 2.657-1.137.635-2.432.952-3.886.952Zm1.03-3.093c1.64 0 2.962-.595 3.966-1.785 1.005-1.19 1.507-2.908 1.507-5.155 0-2.247-.502-3.953-1.507-5.116-1.004-1.19-2.326-1.784-3.965-1.784-1.666 0-3 .595-4.006 1.784-1.004 1.164-1.507 2.869-1.507 5.116 0 2.247.503 3.965 1.507 5.155 1.005 1.19 2.34 1.785 4.006 1.785Zm24.105 3.093c-3.173 0-5.671-.886-7.496-2.657-1.824-1.798-2.736-4.243-2.736-7.337 0-1.982.397-3.727 1.19-5.234.82-1.534 1.943-2.723 3.37-3.57 1.428-.845 3.068-1.268 4.918-1.268 2.67 0 4.772.86 6.306 2.577 1.533 1.692 2.3 4.032 2.3 7.02 0 .898-.53 1.348-1.587 1.348h-12.61c.29 4.018 2.419 6.028 6.384 6.028.793 0 1.626-.093 2.499-.278a8.258 8.258 0 0 0 2.538-1.11c.555-.318 1.03-.423 1.427-.318.423.08.727.305.912.675.185.343.212.74.08 1.19-.106.422-.41.793-.913 1.11-.898.608-1.956 1.07-3.172 1.388-1.19.29-2.326.436-3.41.436Zm-.595-17.25c-1.666 0-2.988.515-3.966 1.546-.978 1.031-1.573 2.406-1.784 4.124h10.826c-.08-1.797-.555-3.185-1.428-4.164-.872-1.004-2.089-1.507-3.648-1.507Zm19 17.25c-1.349 0-2.552-.264-3.61-.793-1.057-.529-1.903-1.243-2.537-2.142-.608-.899-.912-1.916-.912-3.053 0-1.428.357-2.551 1.07-3.371.74-.82 1.944-1.414 3.609-1.785 1.692-.37 3.966-.555 6.82-.555h1.35v-1.03c0-1.508-.318-2.592-.953-3.253-.634-.66-1.678-.991-3.132-.991-.846 0-1.732.106-2.657.317-.9.212-1.838.569-2.816 1.071-.555.264-1.018.304-1.388.119a1.479 1.479 0 0 1-.714-.873 1.794 1.794 0 0 1 .04-1.229c.159-.423.489-.74.991-.952a16.519 16.519 0 0 1 3.45-1.15c1.137-.264 2.208-.396 3.213-.396 2.643 0 4.6.634 5.869 1.903 1.269 1.243 1.903 3.2 1.903 5.87v10.191c0 1.348-.621 2.023-1.864 2.023-1.269 0-1.903-.675-1.903-2.023v-1.467a5.656 5.656 0 0 1-2.22 2.617c-1.005.635-2.208.952-3.61.952Zm.793-2.855c1.427 0 2.617-.503 3.569-1.507.951-1.005 1.427-2.274 1.427-3.807v-1.071h-1.308c-1.93 0-3.45.092-4.56.278-1.085.185-1.865.502-2.34.951-.45.423-.675 1.018-.675 1.785 0 1.005.344 1.824 1.031 2.459.688.608 1.64.912 2.855.912Zm20.546 2.855c-2.062 0-3.622-.595-4.68-1.785-1.03-1.19-1.546-2.934-1.546-5.234V3.788c0-1.35.66-2.023 1.983-2.023 1.348 0 2.022.674 2.022 2.022V23.1c0 2.617 1.058 3.926 3.173 3.926.238 0 .449-.013.634-.04.185-.026.37-.04.555-.04.317-.026.542.067.674.278.133.185.199.582.199 1.19 0 1.084-.503 1.705-1.507 1.864-.265.026-.529.04-.793.04-.238.026-.476.039-.714.039Zm16.285 0c-1.454 0-2.75-.317-3.886-.952-1.137-.66-1.996-1.546-2.578-2.657v1.507c0 1.348-.647 2.023-1.943 2.023-1.322 0-1.983-.675-1.983-2.023V3.787c0-1.348.661-2.022 1.983-2.022 1.348 0 2.023.674 2.023 2.022v9.994c.581-1.058 1.427-1.904 2.538-2.538 1.136-.635 2.419-.952 3.846-.952 1.719 0 3.212.41 4.481 1.23 1.296.819 2.287 1.982 2.975 3.489.713 1.48 1.07 3.252 1.07 5.314 0 2.062-.357 3.846-1.07 5.353-.688 1.507-1.68 2.67-2.975 3.49-1.269.793-2.762 1.19-4.48 1.19Zm-.991-3.093c1.665 0 2.987-.595 3.965-1.785 1.005-1.19 1.507-2.908 1.507-5.155 0-2.247-.502-3.953-1.507-5.116-.978-1.19-2.3-1.784-3.965-1.784-1.666 0-3 .595-4.006 1.784-.978 1.164-1.467 2.869-1.467 5.116 0 2.247.49 3.965 1.468 5.155 1.004 1.19 2.34 1.785 4.005 1.785Zm20.217 3.093c-1.348 0-2.551-.264-3.608-.793-1.058-.529-1.904-1.243-2.538-2.142-.608-.899-.912-1.916-.912-3.053 0-1.428.356-2.551 1.07-3.371.741-.82 1.943-1.414 3.609-1.785 1.692-.37 3.966-.555 6.821-.555h1.348v-1.03c0-1.508-.317-2.592-.952-3.253-.634-.66-1.678-.991-3.132-.991-.846 0-1.732.106-2.657.317-.899.212-1.838.569-2.816 1.071-.555.264-1.018.304-1.388.119a1.477 1.477 0 0 1-.714-.873 1.793 1.793 0 0 1 .04-1.229c.159-.423.489-.74.991-.952a16.55 16.55 0 0 1 3.45-1.15c1.137-.264 2.208-.396 3.213-.396 2.643 0 4.6.634 5.869 1.903 1.269 1.243 1.903 3.2 1.903 5.87v10.191c0 1.348-.621 2.023-1.864 2.023-1.269 0-1.903-.675-1.903-2.023v-1.467a5.656 5.656 0 0 1-2.221 2.617c-1.005.635-2.207.952-3.609.952Zm.793-2.855c1.428 0 2.618-.503 3.57-1.507.951-1.005 1.427-2.274 1.427-3.807v-1.071h-1.308c-1.93 0-3.451.092-4.561.278-1.084.185-1.864.502-2.34.951-.449.423-.674 1.018-.674 1.785 0 1.005.344 1.824 1.031 2.459.688.608 1.639.912 2.855.912Zm21.102 2.855c-1.163 0-2.366-.132-3.609-.397a10.255 10.255 0 0 1-3.371-1.348c-.449-.264-.727-.595-.832-.991a1.59 1.59 0 0 1 .079-1.11c.159-.344.41-.582.753-.715.371-.158.78-.119 1.23.12 1.031.555 2.022.951 2.974 1.19.952.237 1.89.356 2.816.356 1.401 0 2.458-.251 3.172-.753.714-.503 1.071-1.177 1.071-2.023 0-.687-.238-1.216-.714-1.586-.476-.397-1.19-.7-2.141-.912l-3.768-.754c-3.331-.687-4.996-2.406-4.996-5.155 0-1.824.727-3.278 2.181-4.362 1.454-1.084 3.357-1.626 5.71-1.626 2.38 0 4.428.582 6.147 1.745.423.264.674.595.753.991.08.37.027.727-.158 1.07a1.52 1.52 0 0 1-.833.675c-.344.132-.754.08-1.229-.159a9.295 9.295 0 0 0-2.38-1.03 7.993 7.993 0 0 0-2.3-.358c-1.375 0-2.419.265-3.133.793-.714.503-1.07 1.19-1.07 2.063 0 1.322.872 2.168 2.617 2.538l3.767.753c1.719.344 3.014.925 3.887 1.745.898.82 1.348 1.93 1.348 3.331 0 1.85-.727 3.305-2.181 4.362-1.454 1.031-3.384 1.547-5.79 1.547Zm21.509 0c-3.173 0-5.671-.886-7.496-2.657-1.824-1.798-2.736-4.243-2.736-7.337 0-1.982.397-3.727 1.19-5.234.819-1.534 1.943-2.723 3.371-3.57 1.427-.845 3.066-1.268 4.917-1.268 2.67 0 4.772.86 6.305 2.577 1.534 1.692 2.3 4.032 2.3 7.02 0 .898-.528 1.348-1.586 1.348h-12.61c.29 4.018 2.419 6.028 6.384 6.028.793 0 1.626-.093 2.499-.278a8.266 8.266 0 0 0 2.538-1.11c.555-.318 1.031-.423 1.427-.318.423.08.727.305.912.675.185.343.212.74.08 1.19-.106.422-.41.793-.913 1.11-.898.608-1.956 1.07-3.172 1.388a14.37 14.37 0 0 1-3.41.436Zm-.595-17.25c-1.666 0-2.988.515-3.966 1.546-.978 1.031-1.573 2.406-1.784 4.124h10.826c-.08-1.797-.556-3.185-1.428-4.164-.872-1.004-2.089-1.507-3.648-1.507Z"
		fill="#fff"
	/>
	<path
		d="M167.014 30.198c-1.057 0-1.903-.317-2.538-.951-.608-.635-.912-1.454-.912-2.46 0-.977.304-1.77.912-2.378.635-.635 1.481-.952 2.538-.952 1.058 0 1.877.317 2.459.951.608.608.912 1.402.912 2.38 0 1.005-.304 1.824-.912 2.459-.582.634-1.401.951-2.459.951Z"
		fill="url(#a)"
	/>
	<path
		d="M181.004 30.436c-1.454 0-2.737-.277-3.847-.833-1.11-.555-1.996-1.308-2.657-2.26-.634-.952-.952-2.022-.952-3.212 0-1.401.37-2.525 1.111-3.37.74-.847 1.943-1.442 3.608-1.785 1.666-.37 3.874-.556 6.623-.556h1.428v-.674c0-1.163-.265-1.983-.793-2.458-.529-.503-1.428-.754-2.697-.754-.714 0-1.494.093-2.34.278-.846.158-1.758.436-2.736.832-.74.318-1.362.344-1.864.08a2.073 2.073 0 0 1-.991-1.27 2.648 2.648 0 0 1 .119-1.744c.264-.582.766-1.005 1.507-1.27 1.242-.475 2.405-.806 3.489-.99 1.111-.212 2.129-.318 3.054-.318 3.014 0 5.261.688 6.741 2.062 1.481 1.349 2.221 3.45 2.221 6.306v8.803c0 2.036-.925 3.054-2.776 3.054-1.877 0-2.815-1.018-2.815-3.054v-.238a4.976 4.976 0 0 1-2.023 2.46c-.925.607-2.062.911-3.41.911Zm1.348-4.005c1.11 0 2.049-.383 2.816-1.15.766-.767 1.15-1.758 1.15-2.974v-.793h-1.388c-2.036 0-3.477.185-4.323.555-.846.343-1.269.951-1.269 1.824 0 .74.251 1.348.754 1.824.528.476 1.282.714 2.26.714Zm18.664 3.926c-.978 0-1.732-.264-2.261-.793-.502-.529-.753-1.282-.753-2.26V15.01h-1.428c-1.559 0-2.339-.74-2.339-2.22 0-1.508.78-2.261 2.339-2.261h1.428c.053-2.697.78-4.72 2.181-6.068 1.428-1.374 3.49-2.194 6.186-2.458l1.269-.12c.873-.079 1.507.093 1.904.516.423.397.648.886.674 1.468a2.389 2.389 0 0 1-.396 1.586c-.291.45-.727.7-1.309.753l-.555.04c-1.428.106-2.446.45-3.054 1.031-.608.555-.912 1.414-.912 2.578v.674h2.816c1.559 0 2.339.753 2.339 2.26 0 1.48-.78 2.22-2.339 2.22h-2.816v12.294c0 2.036-.991 3.054-2.974 3.054Zm13.714 0c-2.062 0-3.093-1.018-3.093-3.054V13.225c0-2.009.978-3.014 2.935-3.014 1.956 0 2.934 1.005 2.934 3.014v.714c.952-2.353 2.922-3.622 5.909-3.807.661-.053 1.163.12 1.507.516.37.37.568.991.595 1.864.053.82-.119 1.467-.516 1.943-.37.476-1.004.766-1.903.872l-.912.08c-2.961.29-4.442 1.797-4.442 4.52v7.376c0 2.036-1.004 3.054-3.014 3.054ZM230.994 6.96c-1.111 0-1.97-.251-2.578-.754-.581-.529-.872-1.269-.872-2.22 0-.979.291-1.719.872-2.221.608-.529 1.467-.793 2.578-.793 2.273 0 3.41 1.004 3.41 3.014 0 1.982-1.137 2.974-3.41 2.974Zm0 23.357c-.978 0-1.732-.277-2.261-.832-.502-.582-.753-1.389-.753-2.42V13.503c0-2.194 1.005-3.292 3.014-3.292.952 0 1.679.291 2.181.873.529.555.793 1.361.793 2.419v13.562c0 1.031-.251 1.838-.753 2.42-.503.555-1.243.832-2.221.832Zm17.075.12c-2.115 0-3.966-.41-5.552-1.23a8.853 8.853 0 0 1-3.609-3.57c-.846-1.533-1.269-3.343-1.269-5.432 0-2.089.423-3.886 1.269-5.393.846-1.507 2.049-2.657 3.609-3.45 1.586-.82 3.437-1.23 5.552-1.23.82 0 1.692.106 2.617.318a9.459 9.459 0 0 1 2.737.99c.66.318 1.07.768 1.229 1.35a2.42 2.42 0 0 1-.119 1.665c-.212.555-.568.965-1.071 1.23-.476.237-1.044.184-1.705-.16-1.058-.555-2.089-.832-3.093-.832-1.56 0-2.776.489-3.649 1.467-.846.952-1.269 2.313-1.269 4.085 0 1.744.423 3.12 1.269 4.124.873.978 2.089 1.467 3.649 1.467.476 0 .978-.053 1.507-.159a6.645 6.645 0 0 0 1.586-.634c.661-.344 1.229-.383 1.705-.119.503.264.846.674 1.031 1.23.185.528.199 1.083.04 1.665-.159.582-.555 1.031-1.19 1.348-.899.45-1.798.767-2.696.952-.899.212-1.758.317-2.578.317Zm15.965 0c-1.454 0-2.736-.278-3.847-.834-1.11-.555-1.996-1.308-2.657-2.26-.634-.952-.951-2.022-.951-3.212 0-1.401.37-2.525 1.11-3.37.74-.847 1.943-1.442 3.609-1.785 1.665-.37 3.873-.556 6.622-.556h1.428v-.674c0-1.163-.264-1.983-.793-2.458-.529-.503-1.428-.754-2.697-.754-.714 0-1.494.093-2.34.278-.846.158-1.758.436-2.736.832-.74.318-1.361.344-1.864.08a2.077 2.077 0 0 1-.991-1.27 2.648 2.648 0 0 1 .119-1.744c.264-.582.767-1.005 1.507-1.27 1.242-.475 2.406-.806 3.49-.99 1.11-.212 2.128-.318 3.053-.318 3.014 0 5.261.688 6.742 2.062 1.48 1.349 2.22 3.45 2.22 6.306v8.803c0 2.036-.925 3.054-2.775 3.054-1.878 0-2.816-1.018-2.816-3.054v-.238a4.976 4.976 0 0 1-2.023 2.46c-.925.607-2.062.911-3.41.911Zm1.348-4.006c1.111 0 2.049-.383 2.816-1.15.767-.767 1.15-1.758 1.15-2.974v-.793h-1.388c-2.036 0-3.477.185-4.323.555-.846.343-1.269.951-1.269 1.824 0 .74.252 1.348.754 1.824.529.476 1.282.714 2.26.714Z"
		fill="url(#b)"
	/>
	<defs>
		<linearGradient
			id="a"
			x1="137.828"
			y1="1"
			x2="137.828"
			y2="32"
			gradientUnits="userSpaceOnUse"
		>
			<stop stopColor="#F0C735" />
			<stop offset="1" stopColor="#D98F39" />
		</linearGradient>
		<linearGradient
			id="b"
			x1="137.828"
			y1="1"
			x2="137.828"
			y2="32"
			gradientUnits="userSpaceOnUse"
		>
			<stop stopColor="#31A078" />
			<stop offset="1" stopColor="#31A05F" />
		</linearGradient>
	</defs>
</svg>